<svg width="169" height="119" viewBox="0 0 169 119" fill="none" xmlns="http://www.w3.org/2000/svg">
<path d="M11 45C11 59.3594 22.6406 71 37 71C51.3594 71 63 59.3594 63 45C63 30.6406 51.3594 19 37 19C22.6406 19 11 30.6406 11 45ZM11 45C4.5 87.5 -1.5 96.5 17.5 106.5C34.2103 115.071 56 64.5 56.5 64C57 63.5 58 63.5 58.5 63.5C63.5 63.5 73.5637 63.4672 82.5 63.5M23 23.5C23.0857 12.8458 26 9.5 36.5 9.5H39C49.5 9.5 51.1294 11.8488 53 23.5C53 24.5 75 24 82 24M152.5 45C152.5 59.3594 140.859 71 126.5 71C112.141 71 100.5 59.3594 100.5 45C100.5 30.6406 112.141 19 126.5 19C140.859 19 152.5 30.6406 152.5 45ZM152.5 45C159 87.5 165 96.5 146 106.5C129.29 115.071 107.5 64.5 107 64C106.5 63.5 105.5 63.5 105 63.5C100 63.5 89.9363 63.4672 81 63.5M140.5 23.5C140.414 12.8458 137.5 9.5 127 9.5H124.5C114 9.5 112.371 11.8488 110.5 23.5C110.5 24.5 88.5 24 81.5 24" stroke="black"/>
<rect x="69.5" y="52.5" width="6" height="4" rx="0.5" stroke="black"/>
<path d="M95.7249 53.9166C96.1928 54.0754 96.1714 54.7443 95.6943 54.8728L88.8801 56.7088C88.5624 56.7944 88.25 56.5551 88.25 56.226L88.25 52.0776C88.25 51.7352 88.5864 51.4941 88.9107 51.6041L95.7249 53.9166Z" stroke="black"/>
<path d="M26 40C24.5111 39.9609 24.0586 40.3823 24 42V47.5C24.025 49.3376 24.6138 49.5646 26 49.5H29C29.5 49.5 31.1332 47.9763 32.5 47C34.5 45.5 34.3128 44.7286 32.5 43C31.1953 41.7559 29.5 40 29 40L26 40Z" stroke="black"/>
<path d="M49.9307 40C51.4195 39.9609 51.8721 40.3823 51.9307 42V47.5C51.9057 49.3376 51.3169 49.5646 49.9307 49.5H46.9307C46.4307 49.5 44.7975 47.9763 43.4307 47C41.4307 45.5 41.6179 44.7286 43.4307 43C44.7353 41.7559 46.4307 40 46.9307 40L49.9307 40Z" stroke="black"/>
<path d="M33.0024 34C32.9633 32.5111 33.3848 32.0586 35.0024 32L40.5024 32C42.3401 32.025 42.5671 32.6138 42.5024 34L42.5024 37C42.5024 37.5 40.9787 39.1332 40.0024 40.5C38.5024 42.5 37.7311 42.3128 36.0024 40.5C34.7583 39.1953 33.0024 37.5 33.0024 37L33.0024 34Z" stroke="black"/>
<path d="M33.0024 54.9307C32.9633 56.4195 33.3848 56.8721 35.0024 56.9307L40.5024 56.9307C42.3401 56.9057 42.5671 56.3169 42.5024 54.9307L42.5024 51.9307C42.5024 51.4307 40.9787 49.7975 40.0024 48.4307C38.5024 46.4307 37.7311 46.6179 36.0024 48.4307C34.7583 49.7353 33.0024 51.4307 33.0024 51.9307L33.0024 54.9307Z" stroke="black"/>
<circle cx="112.5" cy="44.5" r="6" stroke="black"/>
<circle cx="141.5" cy="44.5" r="6" stroke="black"/>
<circle cx="141.5" cy="44.5" r="4" stroke="black"/>
<circle cx="127.5" cy="56.5" r="6" stroke="black"/>
<circle cx="127.5" cy="31.5" r="6" stroke="black"/>
<rect x="109.5" y="41.5" width="6" height="6" stroke="black"/>
<path d="M124.469 33.25L127.5 28L130.531 33.25H124.469Z" stroke="black"/>
<line x1="124.646" y1="59.6464" x2="130.646" y2="53.6464" stroke="black"/>
<line y1="-0.5" x2="8.48528" y2="-0.5" transform="matrix(-0.707107 -0.707107 -0.707107 0.707107 130 60)" stroke="black"/>
<path d="M29 10.5C28 6.5 49 6.5 47 10.5" stroke="black"/>
<path d="M117.035 10.5C116.035 6.5 137.035 6.5 135.035 10.5" stroke="black"/>
</svg>
