<svg width="88" height="144" viewBox="0 0 88 144" fill="none" xmlns="http://www.w3.org/2000/svg">
<path d="M72.504 89.5993C102.827 37.7589 68.254 12.5993 67.504 12.0993C66.0039 11.0993 65.004 9.59931 64.004 10.0993C62.504 11.0993 62.7717 10.9115 62.004 11.5993C55.2359 17.6629 54.5829 20.0827 51.004 27.5993C50.504 28.5993 50.504 30.5993 51.004 30.5993C55.004 31.5993 62.004 38.0993 61.504 41.5993C57.6814 58.1017 56.004 71.0993 56.004 75.5993C56.004 80.0993 63.015 88.1048 64.004 88.5993C65.004 89.0993 71.504 90.5993 72.504 89.5993Z" stroke="black"/>
<path d="M78.4149 16.9223C79.6179 16.1347 81.2316 16.4715 82.0192 17.6745L85.7398 23.3578C86.5274 24.5609 86.1906 26.1746 84.9876 26.9622C84.8601 27.0456 84.6891 27.0099 84.6056 26.8824L78.3352 17.3042C78.2517 17.1767 78.2874 17.0057 78.4149 16.9223Z" stroke="black"/>
<rect x="79.3" y="18.6506" width="8.67787" height="3.54113" transform="rotate(58.0531 79.3 18.6506)" stroke="black"/>
<path d="M55.5039 18.5993C54.7547 18.3251 54.3197 18.1158 53.5039 17.5993C53.156 17.411 52.8954 17.3426 52.5698 17.404C52.1853 17.4766 51.8935 17.7765 51.6827 18.1062C50.1341 20.5284 48.9728 22.0098 46.7922 24.2982C46.6036 24.4961 46.4449 24.761 46.3979 25.0302V25.0302C46.2816 25.6979 46.9395 26.1384 47.6103 26.2347C48.8272 26.4095 49.7061 26.6428 51.004 27.0993" stroke="black"/>
<path d="M60.004 13.5993C59.504 13.0993 58.504 12.5993 58.004 12.5993C57.504 12.5993 55.004 15.7962 55.004 16.0993C55.004 16.5993 55.7569 16.8696 56.504 17.0993" stroke="black"/>
<path d="M62.004 12.0993C85.504 41.0993 81.004 43.5993 71.004 89.5993" stroke="black"/>
<rect x="64.7651" y="89.181" width="3" height="1" rx="0.5" transform="rotate(10.3434 64.7651 89.181)" stroke="black"/>
<rect x="64.7651" y="90.181" width="2.25653" height="1" rx="0.5" transform="rotate(10.3434 64.7651 90.181)" stroke="black"/>
<rect x="64.7651" y="91.181" width="1.52021" height="1" rx="0.5" transform="rotate(10.3434 64.7651 91.181)" stroke="black"/>
<rect x="0.5" y="0.5" width="32" height="130" rx="4.5" stroke="black"/>
<circle cx="6" cy="5" r="2.5" stroke="black"/>
<circle cx="17" cy="41" r="5.5" stroke="black"/>
<circle cx="8" cy="63" r="2.5" stroke="black"/>
<circle cx="17" cy="63" r="2.5" stroke="black"/>
<circle cx="26" cy="63" r="2.5" stroke="black"/>
<circle cx="17" cy="96" r="3.5" stroke="black"/>
<circle cx="17" cy="108" r="3.5" stroke="black"/>
<path d="M13.44 13V18.2041H8V24.449H13.44V30H19.56V24.449H25V18.2041H19.56V13H13.44Z" stroke="black"/>
<rect x="6.5" y="115.5" width="2" height="2" stroke="black"/>
<rect x="12.5" y="115.5" width="2" height="2" stroke="black"/>
<rect x="18.5" y="115.5" width="2" height="2" stroke="black"/>
<rect x="24.5" y="115.5" width="2" height="2" stroke="black"/>
<circle cx="14" cy="76" r="0.5" stroke="black"/>
<circle cx="17" cy="76" r="0.5" stroke="black"/>
<circle cx="20" cy="76" r="0.5" stroke="black"/>
<circle cx="20" cy="79" r="0.5" stroke="black"/>
<circle cx="17" cy="79" r="0.5" stroke="black"/>
<circle cx="14" cy="79" r="0.5" stroke="black"/>
<circle cx="14" cy="82" r="0.5" stroke="black"/>
<circle cx="14" cy="85" r="0.5" stroke="black"/>
<circle cx="17" cy="82" r="0.5" stroke="black"/>
<circle cx="17" cy="85" r="0.5" stroke="black"/>
<circle cx="20" cy="82" r="0.5" stroke="black"/>
<circle cx="20" cy="85" r="0.5" stroke="black"/>
<path d="M14.5 130.5H19.5V134C19.5 134.828 18.8284 135.5 18 135.5H16C15.1716 135.5 14.5 134.828 14.5 134V130.5Z" stroke="black"/>
<path d="M16.9992 135C15.5 150.5 59 148 65.5033 92.5993" stroke="black"/>
</svg>
