<svg width="184" height="96" viewBox="0 0 184 96" fill="none" xmlns="http://www.w3.org/2000/svg">
<path d="M10.2519 32.5H171.314C172.045 32.5 172.669 33.0261 172.793 33.7459L183.105 93.7459C183.263 94.6625 182.557 95.5 181.627 95.5H2.28319C1.37631 95.5 0.676848 94.7015 0.796244 93.8025L8.76499 33.8025C8.86401 33.057 9.49984 32.5 10.2519 32.5Z" stroke="black"/>
<path d="M19.2523 7.5H161.748C161.97 7.5 162.166 7.64738 162.228 7.86142L169.151 31.8614C169.243 32.1811 169.003 32.5 168.671 32.5H12.3292C11.9965 32.5 11.7566 32.1811 11.8488 31.8614L18.7719 7.86142C18.8336 7.64738 19.0295 7.5 19.2523 7.5Z" stroke="black"/>
<path d="M22.3204 0.5H158.68C158.92 0.5 159.127 0.671708 159.171 0.908483L160.288 6.90848C160.345 7.21601 160.109 7.5 159.797 7.5H21.2034C20.8906 7.5 20.6546 7.216 20.7118 6.90848L21.8289 0.908483C21.873 0.671704 22.0796 0.5 22.3204 0.5Z" stroke="black"/>
<path d="M21 12.5H159" stroke="black"/>
<path d="M19.5 16.5L161 16.5" stroke="black"/>
<path d="M17.5 20.5L163 20.5" stroke="black"/>
<g filter="url(#filter0_d_26_54)">
<line x1="25.4851" y1="2.12127" x2="24.4851" y2="6.12127" stroke="black"/>
</g>
<g filter="url(#filter1_d_26_54)">
<line x1="31.4851" y1="2.12127" x2="30.4851" y2="6.12127" stroke="black"/>
</g>
<g filter="url(#filter2_d_26_54)">
<line x1="37.4851" y1="2.12127" x2="36.4851" y2="6.12127" stroke="black"/>
</g>
<g filter="url(#filter3_d_26_54)">
<line x1="43.4851" y1="2.12127" x2="42.4851" y2="6.12127" stroke="black"/>
</g>
<g filter="url(#filter4_d_26_54)">
<line x1="49.4851" y1="2.12127" x2="48.4851" y2="6.12127" stroke="black"/>
</g>
<g filter="url(#filter5_d_26_54)">
<line x1="55.4851" y1="2.12127" x2="54.4851" y2="6.12127" stroke="black"/>
</g>
<g filter="url(#filter6_d_26_54)">
<line x1="61.4851" y1="2.12127" x2="60.4851" y2="6.12127" stroke="black"/>
</g>
<g filter="url(#filter7_d_26_54)">
<line x1="67.4851" y1="2.12127" x2="66.4851" y2="6.12127" stroke="black"/>
</g>
<g filter="url(#filter8_d_26_54)">
<line x1="73.4851" y1="2.12127" x2="72.4851" y2="6.12127" stroke="black"/>
</g>
<g filter="url(#filter9_d_26_54)">
<line x1="79.4851" y1="2.12127" x2="78.4851" y2="6.12127" stroke="black"/>
</g>
<g filter="url(#filter10_d_26_54)">
<line x1="85.4851" y1="2.12127" x2="84.4851" y2="6.12127" stroke="black"/>
</g>
<line x1="96.4851" y1="2.1356" x2="97.4851" y2="6.1356" stroke="black"/>
<line x1="102.485" y1="2.1356" x2="103.485" y2="6.1356" stroke="black"/>
<line x1="108.485" y1="2.1356" x2="109.485" y2="6.1356" stroke="black"/>
<line x1="114.485" y1="2.1356" x2="115.485" y2="6.1356" stroke="black"/>
<line x1="120.485" y1="2.1356" x2="121.485" y2="6.1356" stroke="black"/>
<line x1="126.485" y1="2.1356" x2="127.485" y2="6.1356" stroke="black"/>
<line x1="132.485" y1="2.1356" x2="133.485" y2="6.1356" stroke="black"/>
<line x1="138.485" y1="2.1356" x2="139.485" y2="6.1356" stroke="black"/>
<line x1="144.485" y1="2.1356" x2="145.485" y2="6.1356" stroke="black"/>
<line x1="150.485" y1="2.1356" x2="151.485" y2="6.1356" stroke="black"/>
<line x1="156.485" y1="2.1356" x2="157.485" y2="6.1356" stroke="black"/>
<line x1="90.4851" y1="2.1356" x2="91.4851" y2="6.1356" stroke="black"/>
<path d="M12.905 39.5H20.895C21.1908 39.5 21.422 39.7554 21.3925 40.0498L20.5925 48.0498C20.567 48.3054 20.3519 48.5 20.095 48.5H12.105C11.8092 48.5 11.578 48.2446 11.6075 47.9502L12.4075 39.9502C12.433 39.6946 12.6481 39.5 12.905 39.5Z" stroke="black"/>
<path d="M30.5256 48.5L30.9756 39.5H39.9744L39.5244 48.5H30.5256Z" stroke="black"/>
<path d="M41.5256 48.5L41.9756 39.5H50.9744L50.5244 48.5H41.5256Z" stroke="black"/>
<path d="M52.5256 48.5L52.9756 39.5H61.9744L61.5244 48.5H52.5256Z" stroke="black"/>
<path d="M70.5256 48.5L70.9756 39.5H79.5V48.5H70.5256Z" stroke="black"/>
<path d="M81.5 39.5H90.5V48.5H81.5V39.5Z" stroke="black"/>
<path d="M92.5 39.5H101.024L101.474 48.5H92.5V39.5Z" stroke="black"/>
<path d="M149.051 49.5H157.049C157.315 49.5 157.535 49.7089 157.548 49.975L157.948 57.975C157.962 58.2606 157.735 58.5 157.449 58.5H149.451C149.185 58.5 148.965 58.2911 148.952 58.025L148.552 50.025C148.538 49.7394 148.765 49.5 149.051 49.5Z" stroke="black"/>
<path d="M160.051 49.5H168.049C168.315 49.5 168.535 49.7089 168.548 49.975L168.948 57.975C168.962 58.2606 168.735 58.5 168.449 58.5H160.451C160.185 58.5 159.965 58.2911 159.952 58.025L159.552 50.025C159.538 49.7394 159.765 49.5 160.051 49.5Z" stroke="black"/>
<path d="M151.051 60.5H159.049C159.315 60.5 159.535 60.7089 159.548 60.975L159.948 68.975C159.962 69.2606 159.735 69.5 159.449 69.5H151.451C151.185 69.5 150.965 69.2911 150.952 69.025L150.552 61.025C150.538 60.7394 150.765 60.5 151.051 60.5Z" stroke="black"/>
<path d="M162.051 60.5H170.049C170.315 60.5 170.535 60.7089 170.548 60.975L170.948 68.975C170.962 69.2606 170.735 69.5 170.449 69.5H162.451C162.185 69.5 161.965 69.2911 161.952 69.025L161.552 61.025C161.538 60.7394 161.765 60.5 162.051 60.5Z" stroke="black"/>
<path d="M152.551 71.5H160.549C160.815 71.5 161.035 71.7089 161.048 71.975L161.448 79.975C161.462 80.2606 161.235 80.5 160.949 80.5H152.951C152.685 80.5 152.465 80.2911 152.452 80.025L152.052 72.025C152.038 71.7394 152.265 71.5 152.551 71.5Z" stroke="black"/>
<path d="M163.551 71.5H171.549C171.815 71.5 172.035 71.7089 172.048 71.975L172.448 79.975C172.462 80.2606 172.235 80.5 171.949 80.5H163.951C163.685 80.5 163.465 80.2911 163.452 80.025L163.052 72.025C163.038 71.7394 163.265 71.5 163.551 71.5Z" stroke="black"/>
<path d="M135.551 68.5H143.549C143.815 68.5 144.035 68.7089 144.048 68.975L144.448 76.975C144.462 77.2606 144.235 77.5 143.949 77.5H135.951C135.685 77.5 135.465 77.2911 135.452 77.025L135.052 69.025C135.038 68.7394 135.265 68.5 135.551 68.5Z" stroke="black"/>
<path d="M124.551 68.5H132.549C132.815 68.5 133.035 68.7089 133.048 68.975L133.448 76.975C133.462 77.2606 133.235 77.5 132.949 77.5H124.951C124.685 77.5 124.465 77.2911 124.452 77.025L124.052 69.025C124.038 68.7394 124.265 68.5 124.551 68.5Z" stroke="black"/>
<path d="M113.551 68.5H121.549C121.815 68.5 122.035 68.7089 122.048 68.975L122.448 76.975C122.462 77.2606 122.235 77.5 121.949 77.5H113.951C113.685 77.5 113.465 77.2911 113.452 77.025L113.052 69.025C113.038 68.7394 113.265 68.5 113.551 68.5Z" stroke="black"/>
<path d="M124.551 57.5H132.549C132.815 57.5 133.035 57.7089 133.048 57.975L133.448 65.975C133.462 66.2606 133.235 66.5 132.949 66.5H124.951C124.685 66.5 124.465 66.2911 124.452 66.025L124.052 58.025C124.038 57.7394 124.265 57.5 124.551 57.5Z" stroke="black"/>
<path d="M26.4512 54.5H34.4488C34.7347 54.5 34.9624 54.7394 34.9481 55.025L34.5481 63.025C34.5348 63.2911 34.3152 63.5 34.0488 63.5H26.0512C25.7653 63.5 25.5376 63.2606 25.5519 62.975L25.9519 54.975C25.9652 54.7089 26.1848 54.5 26.4512 54.5Z" stroke="black"/>
<path d="M10.3612 54.5H23.4488C23.7347 54.5 23.9624 54.7394 23.9481 55.025L23.5481 63.025C23.5348 63.2911 23.3152 63.5 23.0488 63.5H9.16119C8.8555 63.5 8.62137 63.2281 8.66672 62.9258L9.86672 54.9258C9.90343 54.6811 10.1137 54.5 10.3612 54.5Z" stroke="black"/>
<path d="M33.4512 65.5H41.4488C41.7347 65.5 41.9624 65.7394 41.9481 66.025L41.5481 74.025C41.5348 74.2911 41.3152 74.5 41.0488 74.5H33.0512C32.7653 74.5 32.5376 74.2606 32.5519 73.975L32.9519 65.975C32.9652 65.7089 33.1848 65.5 33.4512 65.5Z" stroke="black"/>
<path d="M22.4512 65.5H30.4488C30.7347 65.5 30.9624 65.7394 30.9481 66.025L30.5481 74.025C30.5348 74.2911 30.3152 74.5 30.0488 74.5H22.0512C21.7653 74.5 21.5376 74.2606 21.5519 73.975L21.9519 65.975C21.9652 65.7089 22.1848 65.5 22.4512 65.5Z" stroke="black"/>
<path d="M8.90499 65.5H19.4488C19.7347 65.5 19.9624 65.7394 19.9481 66.025L19.5481 74.025C19.5348 74.2911 19.3152 74.5 19.0488 74.5H8.10499C7.80918 74.5 7.57803 74.2446 7.60747 73.9502L8.40747 65.9502C8.43303 65.6946 8.64811 65.5 8.90499 65.5Z" stroke="black"/>
<path d="M25.3661 76.5H82.9863C83.2507 76.5 83.4694 76.7058 83.4854 76.9697L83.789 81.9697C83.8065 82.2572 83.578 82.5 83.2899 82.5H25.0626C24.7745 82.5 24.546 82.2572 24.5635 81.9697L24.8671 76.9697C24.8831 76.7058 25.1018 76.5 25.3661 76.5Z" stroke="black"/>
<path d="M37.4512 54.5H45.4488C45.7347 54.5 45.9624 54.7394 45.9481 55.025L45.5481 63.025C45.5348 63.2911 45.3152 63.5 45.0488 63.5H37.0512C36.7653 63.5 36.5376 63.2606 36.5519 62.975L36.9519 54.975C36.9652 54.7089 37.1848 54.5 37.4512 54.5Z" stroke="black"/>
<path d="M44.4512 65.5H52C52.2761 65.5 52.5 65.7239 52.5 66V74C52.5 74.2761 52.2761 74.5 52 74.5H44.0512C43.7653 74.5 43.5376 74.2606 43.5519 73.975L43.9519 65.975C43.9652 65.7089 44.1848 65.5 44.4512 65.5Z" stroke="black"/>
<path d="M48.4512 54.5H56.4488C56.7347 54.5 56.9624 54.7394 56.9481 55.025L56.5481 63.025C56.5348 63.2911 56.3152 63.5 56.0488 63.5H48.0512C47.7653 63.5 47.5376 63.2606 47.5519 62.975L47.9519 54.975C47.9652 54.7089 48.1848 54.5 48.4512 54.5Z" stroke="black"/>
<rect x="54.5" y="65.5" width="9" height="9" rx="0.5" stroke="black"/>
<path d="M59.4512 54.5H67.4488C67.7347 54.5 67.9624 54.7394 67.9481 55.025L67.5481 63.025C67.5348 63.2911 67.3152 63.5 67.0488 63.5H59.0512C58.7653 63.5 58.5376 63.2606 58.5519 62.975L58.9519 54.975C58.9652 54.7089 59.1848 54.5 59.4512 54.5Z" stroke="black"/>
<rect x="65.5" y="65.5" width="9" height="9" rx="0.5" stroke="black"/>
<path d="M70.4512 54.5H78.4488C78.7347 54.5 78.9624 54.7394 78.9481 55.025L78.5481 63.025C78.5348 63.2911 78.3152 63.5 78.0488 63.5H70.0512C69.7653 63.5 69.5376 63.2606 69.5519 62.975L69.9519 54.975C69.9652 54.7089 70.1848 54.5 70.4512 54.5Z" stroke="black"/>
<path d="M77 65.5H85C85.2761 65.5 85.5 65.7239 85.5 66V74C85.5 74.2761 85.2761 74.5 85 74.5H77C76.7239 74.5 76.5 74.2761 76.5 74V66C76.5 65.7239 76.7239 65.5 77 65.5Z" stroke="black"/>
<path d="M81.4512 54.5H89C89.2761 54.5 89.5 54.7239 89.5 55V63C89.5 63.2761 89.2761 63.5 89 63.5H81.0512C80.7653 63.5 80.5376 63.2606 80.5519 62.975L80.9519 54.975C80.9652 54.7089 81.1848 54.5 81.4512 54.5Z" stroke="black"/>
<path d="M88 65.5H95.5488C95.8152 65.5 96.0348 65.7089 96.0481 65.975L96.4481 73.975C96.4624 74.2606 96.2347 74.5 95.9488 74.5H88C87.7239 74.5 87.5 74.2761 87.5 74V66C87.5 65.7239 87.7239 65.5 88 65.5Z" stroke="black"/>
<path d="M96.574 76.5H104.569C104.831 76.5 105.049 76.7027 105.068 76.9644L105.425 81.9644C105.445 82.2538 105.216 82.5 104.926 82.5H96.9311C96.6688 82.5 96.4511 82.2973 96.4324 82.0356L96.0752 77.0356C96.0546 76.7462 96.2838 76.5 96.574 76.5Z" stroke="black"/>
<path d="M85.7502 76.5H93.7451C94.0074 76.5 94.2252 76.7027 94.2438 76.9644L94.601 81.9644C94.6217 82.2538 94.3924 82.5 94.1023 82.5H86.1074C85.845 82.5 85.6273 82.2973 85.6086 82.0356L85.2515 77.0356C85.2308 76.7462 85.46 76.5 85.7502 76.5Z" stroke="black"/>
<path d="M14.4311 76.5H22.426C22.7162 76.5 22.9454 76.7462 22.9248 77.0356L22.5676 82.0356C22.5489 82.2973 22.3312 82.5 22.0689 82.5H14.074C13.7838 82.5 13.5546 82.2538 13.5752 81.9644L13.9324 76.9644C13.9511 76.7027 14.1688 76.5 14.4311 76.5Z" stroke="black"/>
<path d="M91.5859 62.6238V55.4974C91.5859 54.9451 92.0336 54.4974 92.5859 54.4974H103.057C103.587 54.4974 104.024 54.91 104.056 55.4384L105.127 73.5855C105.161 74.1599 104.704 74.6444 104.129 74.6444H99.5039C98.9858 74.6444 98.5535 74.2487 98.5078 73.7326L97.6935 64.5356C97.6478 64.0195 97.2155 63.6238 96.6974 63.6238H92.5859C92.0336 63.6238 91.5859 63.1761 91.5859 62.6238Z" stroke="black"/>
<line x1="165" y1="39.5" x2="159" y2="39.5" stroke="black"/>
<line x1="166" y1="42.5" x2="160" y2="42.5" stroke="black"/>
<defs>
<filter id="filter0_d_26_54" x="20" y="2" width="9.97014" height="12.2425" filterUnits="userSpaceOnUse" color-interpolation-filters="sRGB">
<feFlood flood-opacity="0" result="BackgroundImageFix"/>
<feColorMatrix in="SourceAlpha" type="matrix" values="0 0 0 0 0 0 0 0 0 0 0 0 0 0 0 0 0 0 127 0" result="hardAlpha"/>
<feOffset dy="4"/>
<feGaussianBlur stdDeviation="2"/>
<feComposite in2="hardAlpha" operator="out"/>
<feColorMatrix type="matrix" values="0 0 0 0 0 0 0 0 0 0 0 0 0 0 0 0 0 0 0.25 0"/>
<feBlend mode="normal" in2="BackgroundImageFix" result="effect1_dropShadow_26_54"/>
<feBlend mode="normal" in="SourceGraphic" in2="effect1_dropShadow_26_54" result="shape"/>
</filter>
<filter id="filter1_d_26_54" x="26" y="2" width="9.97014" height="12.2425" filterUnits="userSpaceOnUse" color-interpolation-filters="sRGB">
<feFlood flood-opacity="0" result="BackgroundImageFix"/>
<feColorMatrix in="SourceAlpha" type="matrix" values="0 0 0 0 0 0 0 0 0 0 0 0 0 0 0 0 0 0 127 0" result="hardAlpha"/>
<feOffset dy="4"/>
<feGaussianBlur stdDeviation="2"/>
<feComposite in2="hardAlpha" operator="out"/>
<feColorMatrix type="matrix" values="0 0 0 0 0 0 0 0 0 0 0 0 0 0 0 0 0 0 0.25 0"/>
<feBlend mode="normal" in2="BackgroundImageFix" result="effect1_dropShadow_26_54"/>
<feBlend mode="normal" in="SourceGraphic" in2="effect1_dropShadow_26_54" result="shape"/>
</filter>
<filter id="filter2_d_26_54" x="32" y="2" width="9.97014" height="12.2425" filterUnits="userSpaceOnUse" color-interpolation-filters="sRGB">
<feFlood flood-opacity="0" result="BackgroundImageFix"/>
<feColorMatrix in="SourceAlpha" type="matrix" values="0 0 0 0 0 0 0 0 0 0 0 0 0 0 0 0 0 0 127 0" result="hardAlpha"/>
<feOffset dy="4"/>
<feGaussianBlur stdDeviation="2"/>
<feComposite in2="hardAlpha" operator="out"/>
<feColorMatrix type="matrix" values="0 0 0 0 0 0 0 0 0 0 0 0 0 0 0 0 0 0 0.25 0"/>
<feBlend mode="normal" in2="BackgroundImageFix" result="effect1_dropShadow_26_54"/>
<feBlend mode="normal" in="SourceGraphic" in2="effect1_dropShadow_26_54" result="shape"/>
</filter>
<filter id="filter3_d_26_54" x="38" y="2" width="9.97014" height="12.2425" filterUnits="userSpaceOnUse" color-interpolation-filters="sRGB">
<feFlood flood-opacity="0" result="BackgroundImageFix"/>
<feColorMatrix in="SourceAlpha" type="matrix" values="0 0 0 0 0 0 0 0 0 0 0 0 0 0 0 0 0 0 127 0" result="hardAlpha"/>
<feOffset dy="4"/>
<feGaussianBlur stdDeviation="2"/>
<feComposite in2="hardAlpha" operator="out"/>
<feColorMatrix type="matrix" values="0 0 0 0 0 0 0 0 0 0 0 0 0 0 0 0 0 0 0.25 0"/>
<feBlend mode="normal" in2="BackgroundImageFix" result="effect1_dropShadow_26_54"/>
<feBlend mode="normal" in="SourceGraphic" in2="effect1_dropShadow_26_54" result="shape"/>
</filter>
<filter id="filter4_d_26_54" x="44" y="2" width="9.97014" height="12.2425" filterUnits="userSpaceOnUse" color-interpolation-filters="sRGB">
<feFlood flood-opacity="0" result="BackgroundImageFix"/>
<feColorMatrix in="SourceAlpha" type="matrix" values="0 0 0 0 0 0 0 0 0 0 0 0 0 0 0 0 0 0 127 0" result="hardAlpha"/>
<feOffset dy="4"/>
<feGaussianBlur stdDeviation="2"/>
<feComposite in2="hardAlpha" operator="out"/>
<feColorMatrix type="matrix" values="0 0 0 0 0 0 0 0 0 0 0 0 0 0 0 0 0 0 0.25 0"/>
<feBlend mode="normal" in2="BackgroundImageFix" result="effect1_dropShadow_26_54"/>
<feBlend mode="normal" in="SourceGraphic" in2="effect1_dropShadow_26_54" result="shape"/>
</filter>
<filter id="filter5_d_26_54" x="50" y="2" width="9.97014" height="12.2425" filterUnits="userSpaceOnUse" color-interpolation-filters="sRGB">
<feFlood flood-opacity="0" result="BackgroundImageFix"/>
<feColorMatrix in="SourceAlpha" type="matrix" values="0 0 0 0 0 0 0 0 0 0 0 0 0 0 0 0 0 0 127 0" result="hardAlpha"/>
<feOffset dy="4"/>
<feGaussianBlur stdDeviation="2"/>
<feComposite in2="hardAlpha" operator="out"/>
<feColorMatrix type="matrix" values="0 0 0 0 0 0 0 0 0 0 0 0 0 0 0 0 0 0 0.25 0"/>
<feBlend mode="normal" in2="BackgroundImageFix" result="effect1_dropShadow_26_54"/>
<feBlend mode="normal" in="SourceGraphic" in2="effect1_dropShadow_26_54" result="shape"/>
</filter>
<filter id="filter6_d_26_54" x="56" y="2" width="9.97014" height="12.2425" filterUnits="userSpaceOnUse" color-interpolation-filters="sRGB">
<feFlood flood-opacity="0" result="BackgroundImageFix"/>
<feColorMatrix in="SourceAlpha" type="matrix" values="0 0 0 0 0 0 0 0 0 0 0 0 0 0 0 0 0 0 127 0" result="hardAlpha"/>
<feOffset dy="4"/>
<feGaussianBlur stdDeviation="2"/>
<feComposite in2="hardAlpha" operator="out"/>
<feColorMatrix type="matrix" values="0 0 0 0 0 0 0 0 0 0 0 0 0 0 0 0 0 0 0.25 0"/>
<feBlend mode="normal" in2="BackgroundImageFix" result="effect1_dropShadow_26_54"/>
<feBlend mode="normal" in="SourceGraphic" in2="effect1_dropShadow_26_54" result="shape"/>
</filter>
<filter id="filter7_d_26_54" x="62" y="2" width="9.97014" height="12.2425" filterUnits="userSpaceOnUse" color-interpolation-filters="sRGB">
<feFlood flood-opacity="0" result="BackgroundImageFix"/>
<feColorMatrix in="SourceAlpha" type="matrix" values="0 0 0 0 0 0 0 0 0 0 0 0 0 0 0 0 0 0 127 0" result="hardAlpha"/>
<feOffset dy="4"/>
<feGaussianBlur stdDeviation="2"/>
<feComposite in2="hardAlpha" operator="out"/>
<feColorMatrix type="matrix" values="0 0 0 0 0 0 0 0 0 0 0 0 0 0 0 0 0 0 0.25 0"/>
<feBlend mode="normal" in2="BackgroundImageFix" result="effect1_dropShadow_26_54"/>
<feBlend mode="normal" in="SourceGraphic" in2="effect1_dropShadow_26_54" result="shape"/>
</filter>
<filter id="filter8_d_26_54" x="68" y="2" width="9.97014" height="12.2425" filterUnits="userSpaceOnUse" color-interpolation-filters="sRGB">
<feFlood flood-opacity="0" result="BackgroundImageFix"/>
<feColorMatrix in="SourceAlpha" type="matrix" values="0 0 0 0 0 0 0 0 0 0 0 0 0 0 0 0 0 0 127 0" result="hardAlpha"/>
<feOffset dy="4"/>
<feGaussianBlur stdDeviation="2"/>
<feComposite in2="hardAlpha" operator="out"/>
<feColorMatrix type="matrix" values="0 0 0 0 0 0 0 0 0 0 0 0 0 0 0 0 0 0 0.25 0"/>
<feBlend mode="normal" in2="BackgroundImageFix" result="effect1_dropShadow_26_54"/>
<feBlend mode="normal" in="SourceGraphic" in2="effect1_dropShadow_26_54" result="shape"/>
</filter>
<filter id="filter9_d_26_54" x="74" y="2" width="9.97014" height="12.2425" filterUnits="userSpaceOnUse" color-interpolation-filters="sRGB">
<feFlood flood-opacity="0" result="BackgroundImageFix"/>
<feColorMatrix in="SourceAlpha" type="matrix" values="0 0 0 0 0 0 0 0 0 0 0 0 0 0 0 0 0 0 127 0" result="hardAlpha"/>
<feOffset dy="4"/>
<feGaussianBlur stdDeviation="2"/>
<feComposite in2="hardAlpha" operator="out"/>
<feColorMatrix type="matrix" values="0 0 0 0 0 0 0 0 0 0 0 0 0 0 0 0 0 0 0.25 0"/>
<feBlend mode="normal" in2="BackgroundImageFix" result="effect1_dropShadow_26_54"/>
<feBlend mode="normal" in="SourceGraphic" in2="effect1_dropShadow_26_54" result="shape"/>
</filter>
<filter id="filter10_d_26_54" x="80" y="2" width="9.97015" height="12.2425" filterUnits="userSpaceOnUse" color-interpolation-filters="sRGB">
<feFlood flood-opacity="0" result="BackgroundImageFix"/>
<feColorMatrix in="SourceAlpha" type="matrix" values="0 0 0 0 0 0 0 0 0 0 0 0 0 0 0 0 0 0 127 0" result="hardAlpha"/>
<feOffset dy="4"/>
<feGaussianBlur stdDeviation="2"/>
<feComposite in2="hardAlpha" operator="out"/>
<feColorMatrix type="matrix" values="0 0 0 0 0 0 0 0 0 0 0 0 0 0 0 0 0 0 0.25 0"/>
<feBlend mode="normal" in2="BackgroundImageFix" result="effect1_dropShadow_26_54"/>
<feBlend mode="normal" in="SourceGraphic" in2="effect1_dropShadow_26_54" result="shape"/>
</filter>
</defs>
</svg>
