<svg width="198" height="69" viewBox="0 0 198 69" fill="none" xmlns="http://www.w3.org/2000/svg">
<path d="M2.4435 1.95654C2.46701 1.14538 3.13137 0.5 3.94287 0.5H146.057C146.869 0.5 147.533 1.14538 147.557 1.95654L149.441 66.9566C149.465 67.8016 148.787 68.5 147.941 68.5H2.05881C1.21336 68.5 0.534945 67.8016 0.559441 66.9565L2.4435 1.95654Z" stroke="black"/>
<path d="M4.9197 5.93755C4.95318 5.13411 5.61426 4.5 6.4184 4.5H13.5816C14.3857 4.5 15.0468 5.13411 15.0803 5.93755L15.4136 13.9376C15.4491 14.7897 14.7679 15.5 13.9149 15.5H6.08507C5.23214 15.5 4.55086 14.7897 4.58637 13.9376L4.9197 5.93755Z" stroke="black"/>
<path d="M25.9197 5.93755C25.9532 5.13411 26.6143 4.5 27.4184 4.5H34.5816C35.3857 4.5 36.0468 5.13411 36.0803 5.93755L36.4136 13.9376C36.4491 14.7897 35.7679 15.5 34.9149 15.5H27.0851C26.2321 15.5 25.5509 14.7897 25.5864 13.9376L25.9197 5.93755Z" stroke="black"/>
<path d="M39.9197 5.93755C39.9532 5.13411 40.6143 4.5 41.4184 4.5H48.5816C49.3857 4.5 50.0468 5.13411 50.0803 5.93755L50.4136 13.9376C50.4491 14.7897 49.7679 15.5 48.9149 15.5H41.0851C40.2321 15.5 39.5509 14.7897 39.5864 13.9376L39.9197 5.93755Z" stroke="black"/>
<path d="M53.9197 5.93755C53.9532 5.13411 54.6143 4.5 55.4184 4.5H62.5816C63.3857 4.5 64.0468 5.13411 64.0803 5.93755L64.4136 13.9376C64.4491 14.7897 63.7679 15.5 62.9149 15.5H55.0851C54.2321 15.5 53.5509 14.7897 53.5864 13.9376L53.9197 5.93755Z" stroke="black"/>
<path d="M88.9197 5.93755C88.9532 5.13411 89.6143 4.5 90.4184 4.5H97.5816C98.3857 4.5 99.0468 5.13411 99.0803 5.93755L99.4136 13.9376C99.4491 14.7897 98.7679 15.5 97.9149 15.5H90.0851C89.2321 15.5 88.5509 14.7897 88.5864 13.9376L88.9197 5.93755Z" stroke="black"/>
<path d="M74.9197 5.93755C74.9532 5.13411 75.6143 4.5 76.4184 4.5H83.5816C84.3857 4.5 85.0468 5.13411 85.0803 5.93755L85.4136 13.9376C85.4491 14.7897 84.7679 15.5 83.9149 15.5H76.0851C75.2321 15.5 74.5509 14.7897 74.5864 13.9376L74.9197 5.93755Z" stroke="black"/>
<path d="M106.92 5.93755C106.953 5.13411 107.614 4.5 108.418 4.5H115.582C116.386 4.5 117.047 5.13411 117.08 5.93755L117.414 13.9376C117.449 14.7897 116.768 15.5 115.915 15.5H108.085C107.232 15.5 106.551 14.7897 106.586 13.9376L106.92 5.93755Z" stroke="black"/>
<path d="M120.92 5.93755C120.953 5.13411 121.614 4.5 122.418 4.5H129.582C130.386 4.5 131.047 5.13411 131.08 5.93755L131.414 13.9376C131.449 14.7897 130.768 15.5 129.915 15.5H122.085C121.232 15.5 120.551 14.7897 120.586 13.9376L120.92 5.93755Z" stroke="black"/>
<path d="M134.92 5.93755C134.953 5.13411 135.614 4.5 136.418 4.5H143.582C144.386 4.5 145.047 5.13411 145.08 5.93755L145.414 13.9376C145.449 14.7897 144.768 15.5 143.915 15.5H136.085C135.232 15.5 134.551 14.7897 134.586 13.9376L134.92 5.93755Z" stroke="black"/>
<path d="M134.92 19.9376C134.953 19.1341 135.614 18.5 136.418 18.5H143.582C144.386 18.5 145.047 19.1341 145.08 19.9376L145.414 27.9376C145.449 28.7897 144.768 29.5 143.915 29.5H136.085C135.232 29.5 134.551 28.7897 134.586 27.9376L134.92 19.9376Z" stroke="black"/>
<path d="M120.92 19.9376C120.953 19.1341 121.614 18.5 122.418 18.5H129.582C130.386 18.5 131.047 19.1341 131.08 19.9376L131.414 27.9376C131.449 28.7897 130.768 29.5 129.915 29.5H122.085C121.232 29.5 120.551 28.7897 120.586 27.9376L120.92 19.9376Z" stroke="black"/>
<path d="M106.92 19.9376C106.953 19.1341 107.614 18.5 108.418 18.5H115.582C116.386 18.5 117.047 19.1341 117.08 19.9376L117.414 27.9376C117.449 28.7897 116.768 29.5 115.915 29.5H108.085C107.232 29.5 106.551 28.7897 106.586 27.9376L106.92 19.9376Z" stroke="black"/>
<path d="M4.9197 25.9376C4.95318 25.1341 5.61426 24.5 6.4184 24.5H13.5816C14.3857 24.5 15.0468 25.1341 15.0803 25.9376L15.4136 33.9376C15.4491 34.7897 14.7679 35.5 13.9149 35.5H6.08507C5.23214 35.5 4.55086 34.7897 4.58637 33.9376L4.9197 25.9376Z" stroke="black"/>
<path d="M18.9197 25.9376C18.9532 25.1341 19.6143 24.5 20.4184 24.5H27.5816C28.3857 24.5 29.0468 25.1341 29.0803 25.9376L29.4136 33.9376C29.4491 34.7897 28.7679 35.5 27.9149 35.5H20.0851C19.2321 35.5 18.5509 34.7897 18.5864 33.9376L18.9197 25.9376Z" stroke="black"/>
<path d="M25.9197 39.9376C25.9532 39.1341 26.6143 38.5 27.4184 38.5H34.5816C35.3857 38.5 36.0468 39.1341 36.0803 39.9376L36.4136 47.9376C36.4491 48.7897 35.7679 49.5 34.9149 49.5H27.0851C26.2321 49.5 25.5509 48.7897 25.5864 47.9376L25.9197 39.9376Z" stroke="black"/>
<path d="M18.9197 53.9376C18.9532 53.1341 19.6143 52.5 20.4184 52.5H27.5816C28.3857 52.5 29.0468 53.1341 29.0803 53.9376L29.4136 61.9376C29.4491 62.7897 28.7679 63.5 27.9149 63.5H20.0851C19.2321 63.5 18.5509 62.7897 18.5864 61.9376L18.9197 53.9376Z" stroke="black"/>
<path d="M4.9197 53.9376C4.95318 53.1341 5.61426 52.5 6.4184 52.5H13.5816C14.3857 52.5 15.0468 53.1341 15.0803 53.9376L15.4136 61.9376C15.4491 62.7897 14.7679 63.5 13.9149 63.5H6.08507C5.23214 63.5 4.55086 62.7897 4.58637 61.9376L4.9197 53.9376Z" stroke="black"/>
<path d="M39.9197 39.9376C39.9532 39.1341 40.6143 38.5 41.4184 38.5H48.5816C49.3857 38.5 50.0468 39.1341 50.0803 39.9376L50.4136 47.9376C50.4491 48.7897 49.7679 49.5 48.9149 49.5H41.0851C40.2321 49.5 39.5509 48.7897 39.5864 47.9376L39.9197 39.9376Z" stroke="black"/>
<path d="M53.9197 39.9376C53.9532 39.1341 54.6143 38.5 55.4184 38.5H62.5816C63.3857 38.5 64.0468 39.1341 64.0803 39.9376L64.4136 47.9376C64.4491 48.7897 63.7679 49.5 62.9149 49.5H55.0851C54.2321 49.5 53.5509 48.7897 53.5864 47.9376L53.9197 39.9376Z" stroke="black"/>
<path d="M67.9197 39.9376C67.9532 39.1341 68.6143 38.5 69.4184 38.5H76.5816C77.3857 38.5 78.0468 39.1341 78.0803 39.9376L78.4136 47.9376C78.4491 48.7897 77.7679 49.5 76.9149 49.5H69.0851C68.2321 49.5 67.5509 48.7897 67.5864 47.9376L67.9197 39.9376Z" stroke="black"/>
<path d="M32.9197 25.9376C32.9532 25.1341 33.6143 24.5 34.4184 24.5H41.5816C42.3857 24.5 43.0468 25.1341 43.0803 25.9376L43.4136 33.9376C43.4491 34.7897 42.7679 35.5 41.9149 35.5H34.0851C33.2321 35.5 32.5509 34.7897 32.5864 33.9376L32.9197 25.9376Z" stroke="black"/>
<path d="M46.9197 25.9376C46.9532 25.1341 47.6143 24.5 48.4184 24.5H55.5816C56.3857 24.5 57.0468 25.1341 57.0803 25.9376L57.4136 33.9376C57.4491 34.7897 56.7679 35.5 55.9149 35.5H48.0851C47.2321 35.5 46.5509 34.7897 46.5864 33.9376L46.9197 25.9376Z" stroke="black"/>
<path d="M60.9197 25.9376C60.9532 25.1341 61.6143 24.5 62.4184 24.5H69.5816C70.3857 24.5 71.0468 25.1341 71.0803 25.9376L71.4136 33.9376C71.4491 34.7897 70.7679 35.5 69.9149 35.5H62.0851C61.2321 35.5 60.5509 34.7897 60.5864 33.9376L60.9197 25.9376Z" stroke="black"/>
<path d="M74.9197 25.9376C74.9532 25.1341 75.6143 24.5 76.4184 24.5H83.5816C84.3857 24.5 85.0468 25.1341 85.0803 25.9376L85.4136 33.9376C85.4491 34.7897 84.7679 35.5 83.9149 35.5H76.0851C75.2321 35.5 74.5509 34.7897 74.5864 33.9376L74.9197 25.9376Z" stroke="black"/>
<path d="M88.9197 25.9376C88.9532 25.1341 89.6143 24.5 90.4184 24.5H97.5816C98.3857 24.5 99.0468 25.1341 99.0803 25.9376L99.4136 33.9376C99.4491 34.7897 98.7679 35.5 97.9149 35.5H90.0851C89.2321 35.5 88.5509 34.7897 88.5864 33.9376L88.9197 25.9376Z" stroke="black"/>
<path d="M88.9197 53.9376C88.9532 53.1341 89.6143 52.5 90.4184 52.5H97.5816C98.3857 52.5 99.0468 53.1341 99.0803 53.9376L99.4136 61.9376C99.4491 62.7897 98.7679 63.5 97.9149 63.5H90.0851C89.2321 63.5 88.5509 62.7897 88.5864 61.9376L88.9197 53.9376Z" stroke="black"/>
<path d="M106.92 53.9376C106.953 53.1341 107.614 52.5 108.418 52.5H115.582C116.386 52.5 117.047 53.1341 117.08 53.9376L117.414 61.9376C117.449 62.7897 116.768 63.5 115.915 63.5H108.085C107.232 63.5 106.551 62.7897 106.586 61.9376L106.92 53.9376Z" stroke="black"/>
<path d="M120.92 53.9376C120.953 53.1341 121.614 52.5 122.418 52.5H129.582C130.386 52.5 131.047 53.1341 131.08 53.9376L131.414 61.9376C131.449 62.7897 130.768 63.5 129.915 63.5H122.085C121.232 63.5 120.551 62.7897 120.586 61.9376L120.92 53.9376Z" stroke="black"/>
<path d="M134.92 53.9376C134.953 53.1341 135.614 52.5 136.418 52.5H143.582C144.386 52.5 145.047 53.1341 145.08 53.9376L145.414 61.9376C145.449 62.7897 144.768 63.5 143.915 63.5H136.085C135.232 63.5 134.551 62.7897 134.586 61.9376L134.92 53.9376Z" stroke="black"/>
<path d="M120.92 39.9376C120.953 39.1341 121.614 38.5 122.418 38.5H129.582C130.386 38.5 131.047 39.1341 131.08 39.9376L131.414 47.9376C131.449 48.7897 130.768 49.5 129.915 49.5H122.085C121.232 49.5 120.551 48.7897 120.586 47.9376L120.92 39.9376Z" stroke="black"/>
<path d="M4.9197 39.9376C4.95318 39.1341 5.61426 38.5 6.4184 38.5H20.5816C21.3857 38.5 22.0468 39.1341 22.0803 39.9376L22.4136 47.9376C22.4491 48.7897 21.7679 49.5 20.9149 49.5H6.08507C5.23214 49.5 4.55086 48.7897 4.58637 47.9376L4.9197 39.9376Z" stroke="black"/>
<path d="M81.9197 39.9376C81.9532 39.1341 82.6143 38.5 83.4184 38.5H97.5816C98.3857 38.5 99.0468 39.1341 99.0803 39.9376L99.4136 47.9376C99.4491 48.7897 98.7679 49.5 97.9149 49.5H83.0851C82.2321 49.5 81.5509 48.7897 81.5864 47.9376L81.9197 39.9376Z" stroke="black"/>
<path d="M32.9197 53.9376C32.9532 53.1341 33.6143 52.5 34.4184 52.5H83.5816C84.3857 52.5 85.0468 53.1341 85.0803 53.9376L85.4136 61.9376C85.4491 62.7897 84.7679 63.5 83.9149 63.5H34.0851C33.2321 63.5 32.5509 62.7897 32.5864 61.9376L32.9197 53.9376Z" stroke="black"/>
<path d="M162.5 31C162.5 55 169 67.5 180.5 67.5C192 67.5 197 60.5 197 31C197 15.0535 191.738 6.0474 187 2.5C185.053 1.04213 182.102 1 180.5 1C178.64 1 174.78 1.6745 173 3C166.165 8.08887 162.5 21.4797 162.5 31Z" stroke="black"/>
<rect x="178.5" y="12.5" width="3" height="10" rx="1.5" stroke="black"/>
<path d="M180 1.5V12.5" stroke="black"/>
<path d="M168 9C166.5 12.5 164.928 17.702 164.5 28.5C171 29.5 174 29.5 180 29.5M180 29.5V22.5M180 29.5C186 29.5 188 29.5 194 28.5C193.791 15.4308 193.5 12 192 8.5" stroke="black"/>
<path d="M163.5 22.5C163.196 22.2824 162.999 22.2267 162.5 22.5C161.455 27.0715 161.239 29.5957 161.5 34C161.94 34.0775 162.155 34.072 162.5 34" stroke="black"/>
</svg>
