<svg width="148" height="64" viewBox="0 0 148 64" fill="none" xmlns="http://www.w3.org/2000/svg">
<path d="M74 56C71 56 65 56 60 56C58 56 55 56 54 56C53 56 52 56 51 56C51 56 51 56 50 56C45 60 38 63 31 63C14 63 1 49 1 33C1 16 14 3 31 3C31 3 38.8474 3 48 3C57.8986 3 69.3238 3 74 3C82 3 117 3 117 3C134 3 147 16 147 33C147 49 134 63 117 63C110 63 102 60 97 56H96C96 56 95 56 94 56C92 56 90 56 87 56C82 56 77 56 74 56Z" stroke="black"/>
<circle cx="119" cy="22" r="5.5" stroke="black"/>
<circle cx="117" cy="48" r="5.5" stroke="black"/>
<circle cx="104" cy="33" r="5.5" stroke="black"/>
<circle cx="132" cy="37" r="5.5" stroke="black"/>
<path d="M26 21V28.5H18V37.5H26V45.5H35V37.5H43V28.5H35V21H26Z" stroke="black"/>
<rect x="54.6997" y="41.4704" width="12.2232" height="3" rx="1.5" transform="rotate(-36.7087 54.6997 41.4704)" stroke="black"/>
<rect x="71.6997" y="41.4704" width="12.2232" height="3" rx="1.5" transform="rotate(-36.7087 71.6997 41.4704)" stroke="black"/>
<circle cx="117.5" cy="33.5" r="27" stroke="black"/>
<path d="M48 3V1.5C48 0.947715 47.5501 0.5 46.9978 0.5C39.8013 0.5 35.4701 0.5 28 0.5C22.4243 0.682134 19.4686 1.54003 15.3267 4.41195C14.8683 4.72979 14.7739 5.36514 15.1085 5.8114L16 7" stroke="black"/>
<path d="M101 3V1.5C101 0.947715 101.45 0.5 102.002 0.5C109.199 0.5 113.53 0.5 121 0.5C126.576 0.682134 129.531 1.54003 133.673 4.41195C134.132 4.72979 134.226 5.36514 133.891 5.8114L133 7" stroke="black"/>
<rect x="92.7001" y="31.9374" width="35.3638" height="15.425" rx="7.71248" transform="rotate(-36.9084 92.7001 31.9374)" stroke="black"/>
<rect x="105.7" y="46.9374" width="35.3638" height="15.2164" rx="7.60819" transform="rotate(-36.9084 105.7 46.9374)" stroke="black"/>
</svg>
