<svg width="146" height="134" viewBox="0 0 146 134" fill="none" xmlns="http://www.w3.org/2000/svg">
<path d="M74 133C72.5 133 71.625 133 70.5 132.5C66 130.5 63 131.5 51 75.5C50.8845 74.8358 49.5453 72.9944 48.5 72.5C41.9979 70.1243 32.5 69 31.5 69C30.5 69 29.5948 70.8037 29 73.5C28.4052 76.1963 20.5 100.5 19 102.5C17.5 104.5 12.5 105.5 9.5 102.5C6.5 99.5 -3.3081 81.9245 4 48.5V47C4.19612 22.6088 12.3927 15.1269 41 12.5C44.5756 7.26678 45.5 5.50001 53.5 3.50001C58.7476 2.45504 61.4084 1.93432 69 1.50001C69.6523 1.49406 70.0957 1.49448 71 1.50001H75C75.9043 1.49448 76.3477 1.49406 77 1.50001C84.5916 1.93432 87.2524 2.45504 92.5 3.50001C100.5 5.50001 101.424 7.26678 105 12.5C133.607 15.1269 141.804 22.6088 142 47V48.5C149.308 81.9245 139.5 99.5 136.5 102.5C133.5 105.5 128.5 104.5 127 102.5C125.5 100.5 117.595 76.1963 117 73.5C116.405 70.8037 115.5 69 114.5 69C113.5 69 104.002 70.1243 97.5 72.5C96.4547 72.9944 95.1155 74.8358 95 75.5C83 131.5 80 130.5 75.5 132.5C74.375 133 73.5 133 72 133" stroke="black"/>
<path d="M23 33V40.5H15V49.5H23V57.5H32V49.5H40V40.5H32V33H23Z" stroke="black"/>
<circle cx="71.5" cy="49.5" r="5" stroke="black"/>
<circle cx="99" cy="48" r="5.5" stroke="black"/>
<circle cx="72" cy="78" r="5.5" stroke="black"/>
<circle cx="72" cy="78" r="14.5" stroke="black"/>
<circle cx="109" cy="58" r="5.5" stroke="black"/>
<circle cx="111.5" cy="39.5" r="4" stroke="black"/>
<circle cx="127.5" cy="39.5" r="4" stroke="black"/>
<circle cx="119.5" cy="31.5" r="4" stroke="black"/>
<circle cx="119.5" cy="47.5" r="4" stroke="black"/>
<path d="M66.0187 72.0187L72 69.5412L77.9813 72.0187L80.4588 78L77.9813 83.9813L72 86.4588L66.0187 83.9813L63.5412 78L66.0187 72.0187Z" stroke="black"/>
<path d="M43 9.5C26.788 11.127 20.2145 12.7677 13 17V20.5" stroke="black"/>
<path d="M103 10C119.212 11.627 125.785 13.2677 133 17.5V21" stroke="black"/>
<path d="M116 48C113.5 48 111 45.5 111 43M123 48C125.5 48 128 45.5 128 43" stroke="black"/>
<path d="M123 31C125.5 31 128 33.5 128 36M116 31C113.5 31 111 33.5 111 36" stroke="black"/>
<line x1="41.4828" y1="11.87" x2="48.4828" y2="37.87" stroke="black"/>
<line x1="44.4956" y1="7.93392" x2="48.4956" y2="37.9339" stroke="black"/>
<line x1="104.481" y1="12.1348" x2="97.4815" y2="37.1348" stroke="black"/>
<line x1="101.495" y1="8.06832" x2="97.4953" y2="37.0683" stroke="black"/>
<rect x="56.5" y="14.5" width="31" height="6" rx="3" stroke="black"/>
</svg>
