<svg width="136" height="134" viewBox="0 0 136 134" fill="none" xmlns="http://www.w3.org/2000/svg">
<path d="M78.1082 25.5H126.608C132.077 35.7837 133.356 42.3209 132.108 55.5H86.1082M75.7081 75C72.3586 119.621 62.1082 134.5 49.1082 132C39.7311 129.822 35.6082 120 43.6082 84.3295M41.6082 94.0394L33.1082 91.5C31.6082 87.5 32.6082 84 34.6082 81.3154M22.6082 25.5H12.6082C7.10821 36 5.60821 45 7.10821 55.5H15.1082M14.1082 48.5C14.1082 68.6584 30.4498 85 50.6082 85C70.7666 85 87.1082 68.6584 87.1082 48.5C87.1082 28.3416 70.7666 12 50.6082 12C30.4498 12 14.1082 28.3416 14.1082 48.5Z" stroke="black"/>
<circle cx="6.5" cy="6.5" r="6" transform="matrix(-1 0 0 1 53.1082 52)" stroke="black"/>
<circle cx="9" cy="9" r="8.5" transform="matrix(-1 0 0 1 39.1082 46)" stroke="black"/>
<circle cx="34.5" cy="34.5" r="34" transform="matrix(-1 0 0 1 85 14)" stroke="black"/>
<circle cx="6.5" cy="6.5" r="6" transform="matrix(-1 0 0 1 48.1082 35)" stroke="black"/>
<circle cx="6.5" cy="6.5" r="6" transform="matrix(-1 0 0 1 71.1082 39)" stroke="black"/>
<circle cx="10.5" cy="10.5" r="10" transform="matrix(-1 0 0 1 75.1082 35)" stroke="black"/>
<circle cx="5" cy="5" r="4.5" transform="matrix(-1 0 0 1 66.1082 63)" stroke="black"/>
</svg>
