<svg width="144" height="110" viewBox="0 0 144 110" fill="none" xmlns="http://www.w3.org/2000/svg">
<path d="M3.50001 38V36.5C4.6787 20.9514 8.67677 15.4978 24.5 10.5C25.7442 10.0594 26.2416 9.5 27.5 9C42.3875 3.08495 50.8175 1.49917 70 0.5H74C93.1825 1.49917 101.612 3.08495 116.5 9C117.758 9.5 118.256 10.0594 119.5 10.5C135.323 15.4978 139.321 20.9514 140.5 36.5V38M3.50001 38C-1.69384 99.908 1.4322 102.199 8.5 108.5C8.9948 108.855 10 109 11 109C12 109 14 108.5 15 108C19.4944 105.753 22.0957 101.424 27 67C27.1348 66.259 27.2846 65.8931 27.5 65.8735M3.50001 38C8 62.5 27 52.5 27.5 65.8735M140.5 38C145.694 99.908 142.568 102.199 135.5 108.5C135.005 108.855 134 109 133 109C132 109 130 108.5 129 108C124.506 105.753 121.904 101.424 117 67C116.719 65.4536 116.372 65.5409 115.5 67C109.91 79.0022 106.096 81.8752 98.5 82.5C97.6604 82.5155 97.2215 82.5157 96.5 82.5C95.3817 82.4478 93.8716 81.9614 93 82C84.5709 78.5005 82.0813 75.9972 79 68C78.6848 66.7471 78.5788 65.978 78.5 64.5C78.4212 63.022 79.5 60.5 79.5 60.5C81.0914 56.458 82.9885 53.9305 88 49C88.8857 48.121 89.0437 47.5617 89 46.5C84.1612 44.7084 81.0801 44.1822 75 44H71.5H69C62.9199 44.1822 59.8388 44.7084 55 46.5C54.9563 47.5617 55.1143 48.121 56 49C61.0115 53.9305 62.9086 56.458 64.5 60.5C64.5 60.5 65.5788 63.022 65.5 64.5C65.4212 65.978 65.3152 66.7471 65 68C61.9187 75.9972 59.4291 78.5005 51 82C50.1284 81.9614 48.6183 82.4478 47.5 82.5C46.7785 82.5157 46.3396 82.5155 45.5 82.5C37.9036 81.8752 34.0903 79.0022 28.5 67C28.0457 66.2401 27.7341 65.8523 27.5 65.8735M140.5 38C136 62.5 117 52.5 116.5 65.8735" stroke="black"/>
<path d="M108.5 6C109 3 131 11.5 129.5 14.5" stroke="black"/>
<path d="M19.0438 25.0438L27.5 21.5412L35.9562 25.0438L39.4588 33.5L35.9562 41.9562L27.5 45.4588L19.0438 41.9562L15.5412 33.5L19.0438 25.0438Z" stroke="black"/>
<path d="M86.6045 57.6045L94 54.5412L101.395 57.6045L104.459 65L101.395 72.3955L94 75.4588L86.6045 72.3955L83.5412 65L86.6045 57.6045Z" stroke="black"/>
<circle cx="27.5" cy="33.5" r="7" stroke="black"/>
<circle cx="93.5" cy="64.5" r="6" stroke="black"/>
<circle cx="71" cy="36" r="3.5" stroke="black"/>
<circle cx="114.5" cy="33.5" r="8" stroke="black"/>
<circle cx="98.5" cy="41.5" r="5" stroke="black"/>
<path d="M44.08 55V60.8163H38V67.7959H44.08V74H50.92V67.7959H57V60.8163H50.92V55H44.08Z" stroke="black"/>
<path d="M117.5 18.5C117.5 20 116.5 21.0817 115.5 21C111.543 20.6767 109.801 21.6138 107 24C106.178 24.6318 105.547 24.4876 104 23C103.064 22.0392 102.5 21 102.5 19.5C102.5 18 107.036 14.0457 114.5 14.5C115.748 14.5759 117.5 16.5 117.5 18.5Z" stroke="black"/>
<path d="M130.853 38.0878C129.354 38.0649 128.287 37.0484 128.384 36.0498C128.768 32.0978 127.858 30.3421 125.515 27.5049C124.896 26.6734 125.049 26.0445 126.561 24.5205C127.536 23.5997 128.583 23.0513 130.083 23.0743C131.583 23.0972 135.467 27.6937 134.899 35.1494C134.804 36.3957 132.853 38.1184 130.853 38.0878Z" stroke="black"/>
<path d="M24.5 10.5C52.5 9 54.5 28.5 53.5 39C53.3126 43.2245 53.5232 44.8525 55 46.5" stroke="black"/>
<path d="M119.5 10.5C91.5 9 89.5 28.5 90.5 39C90.6874 43.2245 90.4768 44.8525 89 46.5" stroke="black"/>
<path d="M18 13C21 5.5 26.5 5 31.5 7.5" stroke="black"/>
<path d="M125.349 10.5C122.804 6.25167 119.15 5.49305 115.5 6.5" stroke="black"/>
</svg>
