<svg width="247" height="106" viewBox="0 0 247 106" fill="none" xmlns="http://www.w3.org/2000/svg">
<rect x="32.5" y="2.5" width="182" height="103" rx="1.5" stroke="black"/>
<rect x="34.5" y="4.5" width="178" height="99" rx="0.5" stroke="black"/>
<rect x="43.5" y="9.5" width="160" height="89" rx="0.5" stroke="black"/>
<path d="M215.937 2.45044C227.801 2.31034 235.169 5.37442 239.574 9.77173C243.982 14.1716 245.5 19.9842 245.5 25.5002V76.5002C245.5 83.1404 245.485 90.1794 241.836 95.6663C238.219 101.105 230.924 105.147 216.009 105.478C215.186 105.496 214.5 104.825 214.5 104V3.9231C214.5 3.11649 215.143 2.45982 215.937 2.45044Z" stroke="black"/>
<circle cx="230" cy="55" r="8.5" stroke="black"/>
<circle cx="230" cy="55" r="6.5" stroke="black"/>
<circle cx="223" cy="74" r="3.5" stroke="black"/>
<circle cx="222" cy="28" r="3.5" stroke="black"/>
<circle cx="230" cy="20" r="3.5" stroke="black"/>
<circle cx="238" cy="28" r="3.5" stroke="black"/>
<circle cx="230" cy="36" r="3.5" stroke="black"/>
<path d="M221 10.5V12H222.5V14H221V15.5H219V14H217.5V12H219V10.5H221Z" stroke="black"/>
<rect x="220.5" y="81.5" width="5" height="5" rx="0.5" stroke="black"/>
<path d="M218 2.5V1C238.296 1.24425 246.833 11.7926 246.5 25H245.5" stroke="black"/>
<path d="M31.0635 2.45044C19.1991 2.31034 11.8306 5.37442 7.42578 9.77173C3.01844 14.1716 1.5 19.9842 1.5 25.5002V76.5002C1.5 83.1404 1.51514 90.1794 5.16406 95.6663C8.78116 101.105 16.0761 105.147 30.9912 105.478C31.814 105.496 32.4998 104.825 32.5 104V3.9231C32.5 3.11649 31.8573 2.45982 31.0635 2.45044Z" stroke="black"/>
<path d="M29 2.5V1C8.70377 1.24425 0.167364 11.7926 0.5 25H1.5" stroke="black"/>
<circle cx="9" cy="9" r="8.5" transform="matrix(-1 0 0 1 26 19)" stroke="black"/>
<circle cx="7" cy="7" r="6.5" transform="matrix(-1 0 0 1 24 21)" stroke="black"/>
<circle cx="4" cy="4" r="3.5" transform="matrix(-1 0 0 1 29 51)" stroke="black"/>
<circle cx="4" cy="4" r="3.5" transform="matrix(-1 0 0 1 21 43)" stroke="black"/>
<circle cx="4" cy="4" r="3.5" transform="matrix(-1 0 0 1 13 51)" stroke="black"/>
<circle cx="4" cy="4" r="3.5" transform="matrix(-1 0 0 1 21 59)" stroke="black"/>
<rect x="-0.5" y="0.5" width="5" height="5" rx="0.5" transform="matrix(-1 0 0 1 26 71)" stroke="black"/>
<rect x="24.5" y="12.5" width="5" height="2" stroke="black"/>
</svg>
