<svg width="79" height="94" viewBox="0 0 79 94" fill="none" xmlns="http://www.w3.org/2000/svg">
<path d="M0.535855 65.0175C0.525974 64.7346 0.752564 64.5 1.03555 64.5H77.9644C78.2474 64.5 78.474 64.7346 78.4641 65.0175L77.8702 82.0175C77.8608 82.2866 77.6398 82.5 77.3705 82.5H1.62953C1.36019 82.5 1.13925 82.2866 1.12984 82.0175L0.535855 65.0175Z" stroke="black"/>
<rect x="19.5" y="60.5" width="40" height="2" rx="1" stroke="black"/>
<rect x="25.5" y="58.5" width="28" height="2" rx="1" stroke="black"/>
<rect x="30.5" y="56.5" width="18" height="2" rx="1" stroke="black"/>
<path d="M3.5 62.1849C3.5 61.3046 4.25582 60.6146 5.13205 60.6947C7.2752 60.8906 7.59327 60.9161 9.01453 60.8748C9.29026 60.8668 9.52337 60.8613 9.73681 60.8562C10.5971 60.8359 11.1379 60.8231 12.8616 60.6843C13.7448 60.6133 14.5 61.3064 14.5 62.1849V62.5H3.5V62.1849Z" stroke="black"/>
<path d="M4.262 91.2058L3.543 82.5H76.457L75.738 91.2058C75.6309 92.5023 74.5474 93.5 73.2465 93.5H6.75352C5.45259 93.5 4.36908 92.5023 4.262 91.2058Z" stroke="black"/>
<path d="M37.5086 56.5L38.1582 18.5H41.5127L42.487 56.5H37.5086Z" stroke="black"/>
<path d="M0.805103 63.6759C0.957112 62.989 1.56612 62.5 2.26967 62.5H76.7303C77.4339 62.5 78.0429 62.989 78.1949 63.6759L78.3773 64.5H0.62274L0.805103 63.6759Z" stroke="black"/>
<path d="M48.5 9.5C48.5 14.4964 44.6693 18.5 40 18.5C35.3307 18.5 31.5 14.4964 31.5 9.5C31.5 4.50362 35.3307 0.5 40 0.5C44.6693 0.5 48.5 4.50362 48.5 9.5Z" stroke="black"/>
</svg>
