<svg width="215" height="92" viewBox="0 0 215 92" fill="none" xmlns="http://www.w3.org/2000/svg">
<path d="M0.5 18C0.5 9.43959 7.43959 2.5 16 2.5H29C29.2761 2.5 29.5 2.72386 29.5 3V91C29.5 91.2761 29.2761 91.5 29 91.5H16C7.43959 91.5 0.5 84.5604 0.5 76V18Z" stroke="black"/>
<path d="M214.5 18C214.5 9.43959 207.56 2.5 199 2.5H186C185.724 2.5 185.5 2.72386 185.5 3V91C185.5 91.2761 185.724 91.5 186 91.5H199C207.56 91.5 214.5 84.5604 214.5 76V18Z" stroke="black"/>
<path d="M31.5013 4.50114L31.8698 4.83658L31.8749 4.83083L31.5 4.5C31.8749 4.83083 31.875 4.83077 31.875 4.83071L31.8751 4.83056L31.8755 4.83016L31.8765 4.82897L31.88 4.82505L31.892 4.81121C31.9023 4.79937 31.9169 4.78236 31.9354 4.7606C31.9723 4.7171 32.0246 4.65453 32.0878 4.57633C32.214 4.42026 32.3852 4.20026 32.565 3.94411C32.8438 3.54704 33.1723 3.02345 33.3684 2.5H181.966C181.986 2.59463 182.005 2.68723 182.024 2.77829C182.196 3.6275 182.341 4.34216 183.108 5.31052L183.126 5.33314L183.146 5.35355L183.189 5.39595C183.648 5.85566 183.939 6.14672 184.305 6.36625C184.614 6.55154 184.97 6.68176 185.5 6.86014V91.5H29.5V6.80556C30.0608 6.49286 30.61 6.04287 31.0249 5.668C31.273 5.44379 31.4828 5.23744 31.6308 5.08694C31.7049 5.01158 31.7638 4.94993 31.8045 4.90668C31.8249 4.88505 31.8408 4.86801 31.8518 4.85613L31.8646 4.84225L31.8681 4.83835L31.8692 4.83718L31.8696 4.8368L31.8697 4.83665C31.8697 4.8366 31.8698 4.83654 31.5013 4.50114Z" stroke="black"/>
<rect x="35.5" y="5.5" width="145" height="83" rx="2.5" stroke="black"/>
<rect x="45.5" y="11.5" width="124" height="71" rx="0.5" stroke="black"/>
<circle cx="15.5" cy="24.5" r="7" stroke="black"/>
<circle cx="199.5" cy="49.5" r="7" stroke="black"/>
<circle cx="15.5" cy="42.5" r="3" stroke="black"/>
<circle cx="199.5" cy="17.5" r="3" stroke="black"/>
<circle cx="22.5" cy="49.5" r="3" stroke="black"/>
<circle cx="206.5" cy="24.5" r="3" stroke="black"/>
<circle cx="15.5" cy="56.5" r="3" stroke="black"/>
<circle cx="199.5" cy="31.5" r="3" stroke="black"/>
<circle cx="8.5" cy="49.5" r="3" stroke="black"/>
<circle cx="192.5" cy="24.5" r="3" stroke="black"/>
<circle cx="194.5" cy="66.5" r="3" stroke="black"/>
<path d="M189.5 10H187.5V11.5H189.5V13.5H191V11.5H193V10H191V8H189.5V10Z" stroke="black"/>
<rect x="18.5" y="64.5" width="5" height="4" stroke="black"/>
<rect x="22.25" y="10.25" width="4.5" height="0.5" stroke="black" stroke-width="0.5"/>
<path d="M24.5 2.50001C24.5895 1.91421 24.6267 1.58579 24.5 1.00001C13 0.5 10.5 1.5 7.5 5" stroke="black"/>
<path d="M190.66 2.62072C190.571 2.03492 190.534 1.70651 190.66 1.12072C202.16 0.620712 204.66 1.62071 207.66 5.12071" stroke="black"/>
</svg>
